<?xml version="1.0" encoding="utf-8" standalone="no"?>
<!DOCTYPE svg PUBLIC "-//W3C//DTD SVG 1.1//EN"
  "http://www.w3.org/Graphics/SVG/1.1/DTD/svg11.dtd">
<svg xmlns:xlink="http://www.w3.org/1999/xlink" width="460.8pt" height="345.6pt" viewBox="0 0 460.8 345.6" xmlns="http://www.w3.org/2000/svg" version="1.1">
 <metadata>
  <rdf:RDF xmlns:dc="http://purl.org/dc/elements/1.1/" xmlns:cc="http://creativecommons.org/ns#" xmlns:rdf="http://www.w3.org/1999/02/22-rdf-syntax-ns#">
   <cc:Work>
    <dc:type rdf:resource="http://purl.org/dc/dcmitype/StillImage"/>
    <dc:date>2023-11-21T15:56:55.745542</dc:date>
    <dc:format>image/svg+xml</dc:format>
    <dc:creator>
     <cc:Agent>
      <dc:title>Matplotlib v3.7.1, https://matplotlib.org/</dc:title>
     </cc:Agent>
    </dc:creator>
   </cc:Work>
  </rdf:RDF>
 </metadata>
 <defs>
  <style type="text/css">*{stroke-linejoin: round; stroke-linecap: butt}</style>
 </defs>
 <g id="figure_1">
  <g id="patch_1">
   <path d="M 0 345.6 
L 460.8 345.6 
L 460.8 0 
L 0 0 
L 0 345.6 
z
" style="fill: none"/>
  </g>
  <g id="axes_1">
   <g id="line2d_1">
    <path d="M 57.71904 291.640359 
L 58.07616 291.398383 
L 58.67136 290.976449 
L 59.62368 289.857262 
L 61.05216 287.626924 
L 63.31392 284.685954 
L 63.90912 284.092577 
L 64.86144 283.125333 
L 65.69472 282.078016 
L 68.55168 278.992887 
L 69.504 277.922717 
L 70.45632 277.113378 
L 70.81344 276.770845 
L 71.2896 276.60046 
L 71.76576 276.440194 
L 72.12288 276.437294 
L 73.19424 276.074629 
L 73.78944 275.713722 
L 74.14656 275.636303 
L 74.62272 275.532992 
L 75.33696 275.285481 
L 76.17024 275.233024 
L 77.8368 275.294868 
L 78.78912 275.547808 
L 79.97952 276.579504 
L 80.45568 277.130223 
L 80.93184 277.435486 
L 81.28896 277.495348 
L 81.76512 277.657889 
L 82.95552 278.028896 
L 83.43168 278.212434 
L 83.7888 278.301801 
L 85.09824 278.378022 
L 85.69344 278.628027 
L 87.24096 278.940982 
L 88.19328 278.709551 
L 88.66944 278.730979 
L 89.02656 278.717654 
L 89.7408 278.40609 
L 90.09792 278.371336 
L 90.81216 278.07335 
L 94.14528 275.232305 
L 94.5024 275.070941 
L 95.0976 274.163313 
L 96.04992 272.900386 
L 96.64512 272.168697 
L 98.0736 270.023396 
L 99.74016 267.890275 
L 100.81152 266.815841 
L 102.95424 264.947948 
L 104.26368 263.822088 
L 105.09696 262.715574 
L 106.04928 261.219359 
L 106.64448 260.443031 
L 107.5968 259.450599 
L 108.192 258.758356 
L 109.85856 257.732088 
L 110.5728 257.942243 
L 110.92992 258.147309 
L 111.52512 258.146464 
L 112.00128 258.070489 
L 112.59648 258.167654 
L 113.42976 258.163163 
L 114.02496 257.905653 
L 115.21536 257.21166 
L 115.9296 256.89502 
L 116.64384 257.294201 
L 118.9056 257.752925 
L 119.5008 258.219106 
L 120.096 258.580985 
L 121.52448 258.894505 
L 122.00064 258.678742 
L 122.4768 258.47174 
L 124.02432 257.561317 
L 124.97664 256.588758 
L 125.33376 256.204865 
L 126.16704 255.575284 
L 126.52416 255.227435 
L 127.2384 254.684966 
L 127.8336 253.614185 
L 128.30976 252.786057 
L 129.024 251.840335 
L 129.50016 251.102819 
L 130.09536 250.54598 
L 131.04768 249.790162 
L 132.35712 248.042804 
L 132.95232 247.356395 
L 133.54752 246.489428 
L 134.3808 245.178062 
L 135.69024 243.062405 
L 136.1664 242.422086 
L 136.64256 241.782007 
L 137.23776 241.362188 
L 137.59488 241.013316 
L 138.07104 240.438361 
L 138.42816 240.229682 
L 139.1424 239.74458 
L 139.38048 239.781383 
L 139.7376 239.834965 
L 139.97568 239.736224 
L 140.3328 239.51937 
L 144.85632 234.81282 
L 145.21344 234.712249 
L 146.52288 233.500801 
L 147.11808 233.113788 
L 148.6656 232.75433 
L 150.21312 231.55962 
L 151.6416 230.245087 
L 152.47488 229.859976 
L 152.95104 229.769917 
L 153.54624 229.443518 
L 153.90336 229.284409 
L 154.37952 229.020207 
L 156.4032 227.78101 
L 157.23648 226.537827 
L 158.30784 225.799134 
L 159.3792 225.031441 
L 161.76 222.989942 
L 162.11712 222.771072 
L 162.59328 222.2522 
L 163.18848 221.604231 
L 163.5456 221.222939 
L 164.97408 219.778862 
L 165.56928 219.404296 
L 166.75968 217.929636 
L 167.95008 216.383472 
L 168.66432 216.236745 
L 169.37856 216.216973 
L 170.56896 215.663726 
L 171.2832 215.019895 
L 171.75936 214.530475 
L 172.71168 213.828292 
L 173.18784 213.315221 
L 173.54496 213.196701 
L 174.73536 212.336747 
L 176.64 210.196202 
L 177.2352 209.458946 
L 177.8304 208.866081 
L 178.30656 208.369263 
L 179.616 207.22592 
L 180.2112 206.463802 
L 180.8064 205.634178 
L 182.11584 203.775139 
L 182.71104 203.156961 
L 183.42528 202.272212 
L 184.02048 201.397089 
L 184.61568 200.554286 
L 185.21088 199.962712 
L 186.04416 199.640011 
L 186.63936 199.742272 
L 187.23456 200.120064 
L 188.18688 201.074342 
L 188.66304 201.14898 
L 189.1392 201.045056 
L 189.37728 200.970711 
L 192.35328 202.214938 
L 192.82944 202.075455 
L 193.06752 202.122224 
L 193.42464 202.225502 
L 193.78176 202.150525 
L 194.496 201.774556 
L 194.73408 201.820646 
L 195.21024 202.041739 
L 195.56736 202.11802 
L 196.16256 202.587661 
L 196.63872 202.889598 
L 196.8768 202.94632 
L 199.01952 201.731199 
L 200.448 200.139118 
L 200.80512 200.032513 
L 203.30496 200.524701 
L 204.25728 200.398431 
L 204.85248 200.57165 
L 205.32864 200.548232 
L 206.16192 200.687967 
L 206.51904 200.776709 
L 208.06656 200.217168 
L 209.01888 199.741294 
L 209.376 199.583117 
L 210.44736 198.466804 
L 211.87584 196.918338 
L 212.352 196.73661 
L 212.59008 196.639705 
L 212.9472 196.228323 
L 213.66144 195.235904 
L 214.1376 194.432652 
L 214.85184 193.229034 
L 217.23264 190.342876 
L 217.82784 189.461487 
L 218.66112 188.296854 
L 219.13728 187.514172 
L 219.61344 186.884658 
L 220.32768 185.750755 
L 221.39904 184.872645 
L 221.75616 184.676128 
L 222.4704 184.184373 
L 222.94656 184.088639 
L 223.18464 183.938273 
L 223.54176 183.861473 
L 224.01792 183.465724 
L 224.8512 182.702255 
L 225.80352 182.211764 
L 226.27968 182.117501 
L 227.47008 181.420441 
L 228.30336 180.966567 
L 229.49376 180.120137 
L 229.96992 179.912903 
L 230.56512 179.575938 
L 230.92224 179.513502 
L 232.35072 178.638386 
L 232.94592 178.096223 
L 235.68384 175.862478 
L 236.16 175.491206 
L 236.51712 175.204264 
L 237.11232 174.303448 
L 238.06464 173.164169 
L 238.65984 172.574439 
L 240.08832 170.963217 
L 240.44544 170.6357 
L 241.39776 170.21495 
L 242.112 169.611308 
L 242.58816 169.220968 
L 243.8976 168.004783 
L 244.37376 167.690299 
L 246.2784 165.77058 
L 247.82592 164.168233 
L 248.30208 163.861346 
L 249.2544 163.408211 
L 251.6352 161.061688 
L 252.8256 160.496746 
L 253.18272 160.222411 
L 253.77792 160.082256 
L 254.84928 159.354433 
L 255.08736 159.286142 
L 255.56352 158.968405 
L 257.23008 158.306305 
L 258.1824 157.706395 
L 258.7776 157.520137 
L 259.3728 157.007346 
L 260.68224 156.137412 
L 261.63456 155.346926 
L 262.22976 155.029455 
L 262.70592 154.560738 
L 263.30112 154.161191 
L 264.61056 153.39908 
L 265.80096 152.540875 
L 266.87232 152.242191 
L 267.58656 151.834241 
L 268.06272 151.424915 
L 269.13408 150.512224 
L 269.4912 150.351705 
L 270.80064 149.451009 
L 271.15776 149.369465 
L 272.22912 148.514082 
L 272.4672 148.347256 
L 272.70528 148.477398 
L 273.89568 149.619172 
L 275.4432 151.302982 
L 276.27648 151.779303 
L 277.10976 151.91164 
L 277.34784 151.875103 
L 277.94304 151.834893 
L 278.4192 151.65419 
L 278.65728 151.64761 
L 279.0144 151.805674 
L 279.25248 151.999736 
L 279.72864 152.502475 
L 280.91904 153.097582 
L 283.89504 154.344882 
L 284.25216 154.602332 
L 285.20448 154.017171 
L 285.5616 153.7444 
L 285.79968 153.604458 
L 287.82336 151.728562 
L 288.41856 151.350896 
L 288.77568 151.122452 
L 289.01376 151.09932 
L 290.3232 151.77267 
L 290.68032 152.048202 
L 291.87072 152.319929 
L 292.34688 152.513133 
L 296.03712 153.478368 
L 296.75136 153.944909 
L 297.4656 153.876997 
L 297.70368 153.912849 
L 298.656 154.344742 
L 299.13216 154.477472 
L 299.37024 154.57463 
L 299.8464 154.898907 
L 300.08448 155.055474 
L 301.87008 157.025654 
L 302.94144 157.555842 
L 304.13184 157.695232 
L 305.67936 158.517079 
L 306.27456 158.597278 
L 306.9888 158.926259 
L 308.1792 159.284745 
L 308.65536 159.284978 
L 310.67904 159.877004 
L 311.03616 159.927798 
L 311.27424 159.896617 
L 312.46464 159.079892 
L 313.536 157.53953 
L 314.48832 156.062402 
L 315.20256 155.199314 
L 315.79776 154.620494 
L 316.98816 153.099617 
L 318.53568 151.58705 
L 319.60704 150.245526 
L 320.32128 149.412855 
L 321.8688 148.16469 
L 322.70208 147.594159 
L 323.53536 147.033089 
L 324.8448 146.45814 
L 326.6304 146.296045 
L 327.2256 146.072464 
L 327.46368 145.959633 
L 327.8208 145.861411 
L 328.29696 145.624944 
L 330.08256 144.794242 
L 330.7968 144.692494 
L 332.22528 144.174773 
L 333.1776 143.325284 
L 333.65376 142.613308 
L 334.12992 142.04911 
L 335.08224 141.040406 
L 336.03456 140.050576 
L 336.62976 139.556772 
L 337.344 138.856498 
L 338.65344 137.941518 
L 339.1296 137.724657 
L 342.81984 136.998065 
L 344.01024 137.211493 
L 344.96256 137.785098 
L 345.20064 137.887252 
L 345.91488 138.457603 
L 346.272 138.58527 
L 346.8672 139.375762 
L 347.58144 139.998963 
L 348.77184 140.783608 
L 349.60512 140.912413 
L 350.4384 141.029715 
L 353.05728 141.893927 
L 353.53344 142.034727 
L 354.36672 142.098241 
L 354.96192 141.8939 
L 355.55712 141.600758 
L 355.91424 141.555013 
L 357.46176 140.814484 
L 358.29504 140.879674 
L 358.7712 140.519445 
L 359.24736 140.47374 
L 361.39008 140.767395 
L 362.10432 141.024193 
L 362.46144 140.986691 
L 363.17568 140.712729 
L 363.77088 140.465405 
L 364.60416 140.233701 
L 364.96128 140.188236 
L 365.43744 140.167286 
L 365.79456 140.168517 
L 366.38976 140.416167 
L 366.74688 140.485137 
L 368.41344 140.964065 
L 369.12768 141.36487 
L 369.4848 141.412823 
L 370.55616 141.063112 
L 371.8656 140.025375 
L 372.34176 139.654122 
L 373.17504 138.964533 
L 375.07968 137.027111 
L 376.15104 136.318681 
L 378.05568 134.206304 
L 378.88896 133.133587 
L 380.1984 131.674242 
L 381.86496 129.385093 
L 382.5792 128.646918 
L 383.41248 127.680566 
L 384.00768 126.723294 
L 384.72192 125.663922 
L 386.50752 123.4229 
L 387.10272 122.705456 
L 388.88832 120.073867 
L 391.98336 115.869171 
L 393.41184 114.238025 
L 395.91168 112.088877 
L 396.2688 111.853555 
L 398.17344 110.168653 
L 398.88768 109.731957 
L 400.55424 108.859961 
L 401.50656 108.250638 
L 403.05408 107.241967 
L 404.12544 106.010327 
L 405.67296 104.323523 
L 407.33952 102.302056 
L 407.69664 102.013265 
L 409.00608 100.577511 
L 409.60128 100.12208 
L 411.38688 98.845741 
L 412.69632 97.477692 
L 413.05344 97.090439 
L 414.60096 94.936036 
L 414.60096 94.936036 
" clip-path="url(#pc03e59cd6f)" style="fill: none; stroke: #1f77b4; stroke-width: 5; stroke-linecap: square"/>
   </g>
  </g>
 </g>
 <defs>
  <clipPath id="pc03e59cd6f">
   <rect x="57.6" y="41.472" width="357.12" height="266.112"/>
  </clipPath>
 </defs>
</svg>
